<svg width="277" height="252" viewBox="0 0 277 252" fill="none" xmlns="http://www.w3.org/2000/svg">
<g filter="url(#filter0_d)">
<rect width="269" height="244" transform="translate(4)" fill="#E3E3E3"/>
<g filter="url(#filter1_d)">
<path d="M139.5 30L219.607 169.5L59.3926 169.5L139.5 30Z" fill="#4C4C4C"/>
<path d="M60.2563 169L139.5 31.0041L218.744 169L60.2563 169Z" stroke="#E4E4E4"/>
</g>
<path d="M91.3686 151.5L139 69L186.631 151.5H91.3686Z" fill="#E3E3E3" stroke="#E4E4E4"/>
<line x1="63" y1="146.5" x2="104" y2="146.5" stroke="#E4E4E4" stroke-width="11"/>
<path d="M136.336 123.128V147H133.264V132.024L124.752 144.088H124.688L116.336 132.44V147H113.328V123.128H113.36L124.752 139.256L136.304 123.128H136.336ZM163.144 123.864V147.768H163.048L146.056 130.52L146.12 147H142.984V123.16H143.144L160.104 140.6L160.04 123.864H163.144Z" fill="#389790"/>
<path d="M120.73 180.21C119.82 179.72 118.852 179.323 117.825 179.02C116.798 178.717 115.83 178.565 114.92 178.565C113.543 178.565 112.447 178.88 111.63 179.51C110.837 180.117 110.44 180.957 110.44 182.03C110.44 183.08 110.907 183.943 111.84 184.62C112.797 185.273 114.15 185.927 115.9 186.58C117.207 187.047 118.303 187.56 119.19 188.12C120.1 188.657 120.847 189.415 121.43 190.395C122.037 191.352 122.34 192.577 122.34 194.07C122.34 195.423 122.002 196.648 121.325 197.745C120.648 198.842 119.68 199.705 118.42 200.335C117.183 200.965 115.725 201.28 114.045 201.28C112.482 201.28 110.977 201.035 109.53 200.545C108.083 200.032 106.812 199.39 105.715 198.62L107.22 195.925C108.083 196.578 109.122 197.138 110.335 197.605C111.548 198.048 112.68 198.27 113.73 198.27C115.083 198.27 116.262 197.92 117.265 197.22C118.292 196.52 118.805 195.482 118.805 194.105C118.805 192.938 118.373 192.017 117.51 191.34C116.67 190.64 115.48 189.987 113.94 189.38C112.517 188.843 111.327 188.318 110.37 187.805C109.437 187.292 108.632 186.592 107.955 185.705C107.278 184.795 106.94 183.663 106.94 182.31C106.94 180.327 107.628 178.728 109.005 177.515C110.405 176.278 112.213 175.625 114.43 175.555C117.16 175.555 119.692 176.232 122.025 177.585L120.73 180.21ZM125.946 193.615C125.946 192.192 126.284 190.897 126.961 189.73C127.661 188.54 128.618 187.607 129.831 186.93C131.068 186.253 132.456 185.915 133.996 185.915C135.536 185.915 136.901 186.253 138.091 186.93C139.304 187.607 140.238 188.528 140.891 189.695C141.568 190.862 141.906 192.168 141.906 193.615C141.906 195.062 141.568 196.38 140.891 197.57C140.238 198.737 139.304 199.658 138.091 200.335C136.878 201.012 135.489 201.35 133.926 201.35C132.409 201.35 131.044 201.035 129.831 200.405C128.618 199.752 127.661 198.842 126.961 197.675C126.284 196.508 125.946 195.155 125.946 193.615ZM129.236 193.65C129.236 194.56 129.434 195.4 129.831 196.17C130.251 196.94 130.811 197.547 131.511 197.99C132.234 198.433 133.028 198.655 133.891 198.655C135.244 198.655 136.364 198.177 137.251 197.22C138.138 196.263 138.581 195.073 138.581 193.65C138.581 192.227 138.138 191.037 137.251 190.08C136.364 189.1 135.244 188.61 133.891 188.61C133.004 188.61 132.211 188.843 131.511 189.31C130.811 189.753 130.251 190.36 129.831 191.13C129.434 191.9 129.236 192.74 129.236 193.65ZM147.468 189.415H144.983V186.475H147.468V180.385C147.468 178.285 147.947 176.675 148.903 175.555C149.86 174.435 151.26 173.875 153.103 173.875C153.617 173.875 154.165 173.957 154.748 174.12C155.332 174.26 155.845 174.47 156.288 174.75L154.888 177.13C154.538 176.757 154.048 176.57 153.418 176.57C152.532 176.57 151.855 176.873 151.388 177.48C150.945 178.087 150.723 179.067 150.723 180.42V186.475H155.343V189.415H150.723V201H147.468V189.415ZM164.264 180.14V186.545H168.219V189.135H164.264V201H160.974V189.135H158.314V186.545H160.974V180.14H164.264Z" fill="#668080"/>
</g>
<defs>
<filter id="filter0_d" x="0" y="0" width="277" height="252" filterUnits="userSpaceOnUse" color-interpolation-filters="sRGB">
<feFlood flood-opacity="0" result="BackgroundImageFix"/>
<feColorMatrix in="SourceAlpha" type="matrix" values="0 0 0 0 0 0 0 0 0 0 0 0 0 0 0 0 0 0 127 0"/>
<feOffset dy="4"/>
<feGaussianBlur stdDeviation="2"/>
<feColorMatrix type="matrix" values="0 0 0 0 0 0 0 0 0 0 0 0 0 0 0 0 0 0 0.25 0"/>
<feBlend mode="normal" in2="BackgroundImageFix" result="effect1_dropShadow"/>
<feBlend mode="normal" in="SourceGraphic" in2="effect1_dropShadow" result="shape"/>
</filter>
<filter id="filter1_d" x="55.3926" y="30" width="168.215" height="147.5" filterUnits="userSpaceOnUse" color-interpolation-filters="sRGB">
<feFlood flood-opacity="0" result="BackgroundImageFix"/>
<feColorMatrix in="SourceAlpha" type="matrix" values="0 0 0 0 0 0 0 0 0 0 0 0 0 0 0 0 0 0 127 0"/>
<feOffset dy="4"/>
<feGaussianBlur stdDeviation="2"/>
<feColorMatrix type="matrix" values="0 0 0 0 0 0 0 0 0 0 0 0 0 0 0 0 0 0 0.25 0"/>
<feBlend mode="normal" in2="BackgroundImageFix" result="effect1_dropShadow"/>
<feBlend mode="normal" in="SourceGraphic" in2="effect1_dropShadow" result="shape"/>
</filter>
</defs>
</svg>
